<svg width="13" height="10" viewBox="0 0 13 10" fill="none" xmlns="http://www.w3.org/2000/svg">
<g filter="url(#filter0_i_2331_18520)">
<path d="M12.7855 9.26232C8.52366 11.8194 4.26183 6.70522 0 9.26232C0 6.4211 0 3.57988 0 0.738659C4.26183 -1.81844 8.52366 3.29576 12.7855 0.738659C12.7855 3.57988 12.7855 6.4211 12.7855 9.26232Z" fill="#003399"/>
<path d="M6.39063 1.73706C6.42616 1.85708 6.46169 1.9771 6.49722 2.09711C6.6122 2.13158 6.72718 2.16595 6.84216 2.19994C6.74914 2.24003 6.65612 2.27987 6.5631 2.31961C6.59863 2.43961 6.63416 2.55959 6.66969 2.67955C6.57667 2.58421 6.48365 2.48872 6.39063 2.39322C6.2976 2.4329 6.20458 2.47259 6.11156 2.51243C6.14709 2.41367 6.18262 2.31493 6.21815 2.2162C6.12513 2.12077 6.03211 2.02544 5.93909 1.93037C6.05407 1.96434 6.16905 1.99871 6.28403 2.03317C6.31956 1.93446 6.3551 1.83576 6.39063 1.73706Z" fill="#FFCC00"/>
<path d="M8.84546 6.6123C8.88099 6.72762 8.91652 6.84273 8.95205 6.95762C9.06704 6.97553 9.18201 6.9912 9.297 7.00434C9.20398 7.0613 9.11095 7.1166 9.01793 7.1704C9.05346 7.28503 9.08899 7.39943 9.12453 7.51362C9.0315 7.43341 8.93848 7.35164 8.84546 7.26847C8.75244 7.32047 8.65941 7.37107 8.56639 7.42043C8.60193 7.31803 8.63745 7.21545 8.67299 7.11269C8.57996 7.02784 8.48694 6.9417 8.39392 6.8544C8.5089 6.87876 8.62388 6.90137 8.73887 6.92192C8.7744 6.81892 8.80993 6.71572 8.84546 6.6123Z" fill="#FFCC00"/>
<path d="M9.22473 5.25293C9.26027 5.36667 9.29579 5.48018 9.33133 5.59344C9.44631 5.60607 9.56129 5.61613 9.67627 5.62332C9.58325 5.68509 9.49023 5.74499 9.3972 5.80316C9.43274 5.91611 9.46827 6.02882 9.5038 6.14126C9.41078 6.0656 9.31775 5.98815 9.22473 5.90909C9.13171 5.9652 9.03869 6.01969 8.94567 6.07272C8.9812 5.96892 9.01673 5.86491 9.05226 5.76067C8.95924 5.67967 8.86622 5.59715 8.77319 5.51326C8.88818 5.5334 9.00315 5.55147 9.11814 5.56716C9.15367 5.46265 9.1892 5.3579 9.22473 5.25293Z" fill="#FFCC00"/>
<path d="M8.84546 3.78247C8.88099 3.89778 8.91652 4.01289 8.95205 4.12779C9.06704 4.1457 9.18201 4.16137 9.297 4.1745C9.20398 4.23146 9.11095 4.28676 9.01793 4.34056C9.05346 4.45519 9.08899 4.5696 9.12453 4.68378C9.0315 4.60358 8.93848 4.5218 8.84546 4.43863C8.75244 4.49064 8.65941 4.54124 8.56639 4.5906C8.60193 4.4882 8.63745 4.38563 8.67299 4.28286C8.57996 4.19802 8.48694 4.11187 8.39392 4.02458C8.5089 4.04893 8.62388 4.07154 8.73887 4.09209C8.7744 3.98908 8.80993 3.88588 8.84546 3.78247Z" fill="#FFCC00"/>
<path d="M7.80982 2.51953C7.84535 2.63798 7.88088 2.75631 7.91641 2.87451C8.03139 2.90313 8.14637 2.93041 8.26135 2.95607C8.16833 3.0029 8.07531 3.04867 7.98229 3.09353C8.01782 3.21157 8.05335 3.32948 8.08888 3.44725C7.99586 3.35765 7.90284 3.26708 7.80982 3.17569C7.71679 3.21949 7.62377 3.26247 7.53075 3.30481C7.56628 3.2051 7.60181 3.10529 7.63734 3.00538C7.54432 2.91305 7.4513 2.82002 7.35828 2.72644C7.47326 2.75857 7.58824 2.78986 7.70322 2.82001C7.73875 2.71995 7.77428 2.6198 7.80982 2.51953Z" fill="#FFCC00"/>
<path d="M6.39063 7.40332C6.42616 7.52334 6.46169 7.64336 6.49722 7.76337C6.6122 7.79784 6.72718 7.83221 6.84216 7.8662C6.74914 7.90629 6.65612 7.94613 6.5631 7.98588C6.59863 8.10588 6.63416 8.22585 6.66969 8.34581C6.57667 8.25048 6.48365 8.15498 6.39063 8.05949C6.2976 8.09917 6.20458 8.13885 6.11156 8.1787C6.14709 8.07994 6.18262 7.9812 6.21815 7.88247C6.12513 7.78704 6.03211 7.6917 5.93909 7.59663C6.05407 7.6306 6.16905 7.66498 6.28403 7.69944C6.31956 7.60072 6.3551 7.50202 6.39063 7.40332Z" fill="#FFCC00"/>
<path d="M7.80554 7.42358C7.84108 7.54204 7.8766 7.66038 7.91214 7.77859C8.02712 7.80724 8.1421 7.83457 8.25708 7.86026C8.16406 7.90706 8.07104 7.95279 7.97801 7.99762C8.01355 8.11568 8.04908 8.23359 8.08461 8.35138C7.99159 8.26174 7.89856 8.17115 7.80554 8.07974C7.71252 8.12352 7.6195 8.16648 7.52648 8.20879C7.56201 8.10909 7.59754 8.00929 7.63307 7.90938C7.54005 7.81704 7.44703 7.72399 7.354 7.63038C7.46899 7.66254 7.58396 7.69386 7.69895 7.72403C7.73448 7.62399 7.77001 7.52385 7.80554 7.42358Z" fill="#FFCC00"/>
<path d="M4.97571 6.61621C5.01124 6.73466 5.04677 6.85323 5.0823 6.9719C5.19729 7.00204 5.31226 7.03334 5.42725 7.06547C5.33423 7.10706 5.2412 7.1492 5.14818 7.19206C5.18371 7.31087 5.21924 7.42978 5.25478 7.54878C5.16175 7.45594 5.06873 7.36375 4.97571 7.27237C4.88269 7.31616 4.78966 7.36077 4.69664 7.40634C4.73218 7.30539 4.7677 7.20458 4.80324 7.10391C4.71021 7.01359 4.61719 6.92418 4.52417 6.83583C4.63915 6.86149 4.75413 6.88877 4.86911 6.91739C4.90465 6.81687 4.94018 6.71648 4.97571 6.61621Z" fill="#FFCC00"/>
<path d="M3.94006 5.35742C3.9756 5.47273 4.01113 5.58825 4.04666 5.70396C4.16164 5.72452 4.27662 5.74712 4.3916 5.77148C4.29858 5.81936 4.20556 5.86839 4.11254 5.91873C4.14807 6.03468 4.1836 6.15082 4.21913 6.26714C4.12611 6.18133 4.03309 6.09676 3.94006 6.01358C3.84704 6.06559 3.75402 6.11899 3.661 6.17397C3.69653 6.06943 3.73206 5.96512 3.76759 5.86102C3.67457 5.77964 3.58155 5.69977 3.48853 5.62155C3.60351 5.63469 3.71849 5.65037 3.83347 5.66827C3.869 5.56444 3.90453 5.46083 3.94006 5.35742Z" fill="#FFCC00"/>
<path d="M4.97571 1.71094C5.01124 1.82939 5.04677 1.94795 5.0823 2.06663C5.19729 2.09677 5.31226 2.12807 5.42725 2.1602C5.33423 2.20179 5.2412 2.24393 5.14818 2.28679C5.18371 2.40559 5.21924 2.5245 5.25478 2.64351C5.16175 2.55067 5.06873 2.45848 4.97571 2.3671C4.88269 2.41089 4.78966 2.4555 4.69664 2.50108C4.73218 2.40013 4.7677 2.29932 4.80324 2.19864C4.71021 2.10832 4.61719 2.01891 4.52417 1.93057C4.63915 1.95622 4.75413 1.9835 4.86911 2.01212C4.90465 1.9116 4.94018 1.8112 4.97571 1.71094Z" fill="#FFCC00"/>
<path d="M3.94006 2.52759C3.9756 2.6429 4.01113 2.75842 4.04666 2.87413C4.16164 2.89468 4.27662 2.91729 4.3916 2.94164C4.29858 2.98953 4.20556 3.03856 4.11254 3.08889C4.14807 3.20484 4.1836 3.32099 4.21913 3.43731C4.12611 3.35149 4.03309 3.26692 3.94006 3.18375C3.84704 3.23575 3.75402 3.28916 3.661 3.34413C3.69653 3.23959 3.73206 3.13528 3.76759 3.03119C3.67457 2.94981 3.58155 2.86993 3.48853 2.79172C3.60351 2.80486 3.71849 2.82053 3.83347 2.83844C3.869 2.73461 3.90453 2.631 3.94006 2.52759Z" fill="#FFCC00"/>
<path d="M3.56079 3.88721C3.59632 4.00095 3.63185 4.11493 3.66739 4.22913C3.78237 4.24482 3.89735 4.26289 4.01233 4.28303C3.91931 4.33432 3.82629 4.38697 3.73326 4.44115C3.7688 4.55563 3.80432 4.67033 3.83986 4.78526C3.74684 4.70311 3.65381 4.62243 3.56079 4.54336C3.46777 4.59947 3.37475 4.65721 3.28172 4.71671C3.31726 4.61044 3.35279 4.50442 3.38832 4.39866C3.2953 4.32166 3.20228 4.24637 3.10925 4.17296C3.22424 4.18016 3.33921 4.19022 3.4542 4.20285C3.48973 4.0974 3.52526 3.99218 3.56079 3.88721Z" fill="#FFCC00"/>
</g>
<defs>
<filter id="filter0_i_2331_18520" x="0" y="0.000488281" width="12.7855" height="10" filterUnits="userSpaceOnUse" color-interpolation-filters="sRGB">
<feFlood flood-opacity="0" result="BackgroundImageFix"/>
<feBlend mode="normal" in="SourceGraphic" in2="BackgroundImageFix" result="shape"/>
<feColorMatrix in="SourceAlpha" type="matrix" values="0 0 0 0 0 0 0 0 0 0 0 0 0 0 0 0 0 0 127 0" result="hardAlpha"/>
<feOffset/>
<feGaussianBlur stdDeviation="3"/>
<feComposite in2="hardAlpha" operator="arithmetic" k2="-1" k3="1"/>
<feColorMatrix type="matrix" values="0 0 0 0 0 0 0 0 0 0 0 0 0 0 0 0 0 0 0.15 0"/>
<feBlend mode="normal" in2="shape" result="effect1_innerShadow_2331_18520"/>
</filter>
</defs>
</svg>
