<svg width="180" height="70" viewBox="0 0 180 70" fill="none" xmlns="http://www.w3.org/2000/svg">
<g filter="url(#filter0_d_18625_353878)">
<path d="M4.48535 16.8276C4.48535 9.74311 10.2285 4 17.3129 4H66.4854V66H17.3129C10.2285 66 4.48535 60.2569 4.48535 53.1724V16.8276Z" fill="#003399"/>
<path d="M35.4863 12.552L34.509 15.5598L36.0129 16.0485L35.4863 12.552Z" fill="#FFCC00"/>
<path d="M35.4863 12.552L36.4636 15.5598L34.9597 16.0485L35.4863 12.552Z" fill="#FFCC00"/>
<path d="M38.4922 14.7366H35.3296V16.3179L38.4922 14.7366Z" fill="#FFCC00"/>
<path d="M38.4922 14.7366L35.9336 16.5955L35.0041 15.3162L38.4922 14.7366Z" fill="#FFCC00"/>
<path d="M37.3457 18.2729L36.3684 15.2651L34.8645 15.7538L37.3457 18.2729Z" fill="#FFCC00"/>
<path d="M37.3457 18.2729L34.7871 16.414L35.7166 15.1347L37.3457 18.2729Z" fill="#FFCC00"/>
<path d="M32.4771 14.7368H35.6397V16.3181L32.4771 14.7368Z" fill="#FFCC00"/>
<path d="M32.4771 14.7368L35.0357 16.5958L35.9651 15.3165L32.4771 14.7368Z" fill="#FFCC00"/>
<path d="M33.626 18.2727L34.6033 15.2649L36.1072 15.7535L33.626 18.2727Z" fill="#FFCC00"/>
<path d="M33.626 18.2727L36.1846 16.4138L35.2551 15.1345L33.626 18.2727Z" fill="#FFCC00"/>
<path d="M35.4858 50.5034L34.5085 53.5112L36.0125 53.9999L35.4858 50.5034Z" fill="#FFCC00"/>
<path d="M35.4858 50.5034L36.4631 53.5112L34.9592 53.9999L35.4858 50.5034Z" fill="#FFCC00"/>
<path d="M38.4937 52.6887H35.331V54.27L38.4937 52.6887Z" fill="#FFCC00"/>
<path d="M38.4937 52.6887L35.935 54.5477L35.0056 53.2684L38.4937 52.6887Z" fill="#FFCC00"/>
<path d="M37.3457 56.2244L36.3684 53.2165L34.8645 53.7052L37.3457 56.2244Z" fill="#FFCC00"/>
<path d="M37.3457 56.2244L34.7871 54.3654L35.7166 53.0861L37.3457 56.2244Z" fill="#FFCC00"/>
<path d="M32.4775 52.6882H35.6402V54.2695L32.4775 52.6882Z" fill="#FFCC00"/>
<path d="M32.4775 52.6882L35.0362 54.5472L35.9656 53.2679L32.4775 52.6882Z" fill="#FFCC00"/>
<path d="M33.626 56.2244L34.6033 53.2165L36.1072 53.7052L33.626 56.2244Z" fill="#FFCC00"/>
<path d="M33.626 56.2244L36.1846 54.3654L35.2551 53.0861L33.626 56.2244Z" fill="#FFCC00"/>
<path d="M16.5103 31.5276L15.533 34.5354L17.0369 35.0241L16.5103 31.5276Z" fill="#FFCC00"/>
<path d="M16.5103 31.5276L17.4876 34.5354L15.9836 35.0241L16.5103 31.5276Z" fill="#FFCC00"/>
<path d="M19.5181 33.7126H16.3554V35.294L19.5181 33.7126Z" fill="#FFCC00"/>
<path d="M19.5181 33.7126L16.9595 35.5716L16.03 34.2923L19.5181 33.7126Z" fill="#FFCC00"/>
<path d="M18.3701 37.2495L17.3928 34.2417L15.8889 34.7303L18.3701 37.2495Z" fill="#FFCC00"/>
<path d="M18.3701 37.2495L15.8115 35.3906L16.741 34.1113L18.3701 37.2495Z" fill="#FFCC00"/>
<path d="M13.5024 33.7126H16.6651V35.294L13.5024 33.7126Z" fill="#FFCC00"/>
<path d="M13.5024 33.7126L16.0611 35.5716L16.9905 34.2923L13.5024 33.7126Z" fill="#FFCC00"/>
<path d="M14.6499 37.2495L15.6272 34.2417L17.1311 34.7303L14.6499 37.2495Z" fill="#FFCC00"/>
<path d="M14.6499 37.2495L17.2085 35.3906L16.279 34.1113L14.6499 37.2495Z" fill="#FFCC00"/>
<path d="M24.1382 20.8149L26.6968 18.956L25.7673 17.6767L24.1382 20.8149Z" fill="#FFCC00"/>
<path d="M24.1382 20.8149L25.1155 17.8071L26.6194 18.2958L24.1382 20.8149Z" fill="#FFCC00"/>
<path d="M22.9907 17.2791L25.5493 19.138L26.4788 17.8587L22.9907 17.2791Z" fill="#FFCC00"/>
<path d="M22.9907 17.2791H26.1533V18.8604L22.9907 17.2791Z" fill="#FFCC00"/>
<path d="M25.998 15.0938L25.0207 18.1016L26.5247 18.5902L25.998 15.0938Z" fill="#FFCC00"/>
<path d="M25.998 15.0938L26.9753 18.1016L25.4714 18.5902L25.998 15.0938Z" fill="#FFCC00"/>
<path d="M27.8579 20.8152L25.2993 18.9562L26.2288 17.6769L27.8579 20.8152Z" fill="#FFCC00"/>
<path d="M27.8579 20.8152L26.8806 17.8074L25.3767 18.296L27.8579 20.8152Z" fill="#FFCC00"/>
<path d="M29.0059 17.2793L26.4472 19.1382L25.5178 17.8589L29.0059 17.2793Z" fill="#FFCC00"/>
<path d="M29.0059 17.2793H25.8432V18.8606L29.0059 17.2793Z" fill="#FFCC00"/>
<path d="M20.9126 27.7603L19.9353 24.7524L18.4314 25.2411L20.9126 27.7603Z" fill="#FFCC00"/>
<path d="M20.9126 27.7603L18.354 25.9013L19.2835 24.622L20.9126 27.7603Z" fill="#FFCC00"/>
<path d="M17.1934 27.7612L19.752 25.9023L18.8225 24.623L17.1934 27.7612Z" fill="#FFCC00"/>
<path d="M17.1934 27.7612L18.1707 24.7534L19.6746 25.2421L17.1934 27.7612Z" fill="#FFCC00"/>
<path d="M16.0449 24.2251L18.6035 26.084L19.533 24.8047L16.0449 24.2251Z" fill="#FFCC00"/>
<path d="M16.0449 24.2251H19.2075V25.8064L16.0449 24.2251Z" fill="#FFCC00"/>
<path d="M22.0601 24.2251L19.5014 26.084L18.572 24.8047L22.0601 24.2251Z" fill="#FFCC00"/>
<path d="M22.0601 24.2251H18.8974V25.8064L22.0601 24.2251Z" fill="#FFCC00"/>
<path d="M19.0518 22.0396L20.0291 25.0474L18.5251 25.536L19.0518 22.0396Z" fill="#FFCC00"/>
<path d="M19.0518 22.0396L18.0745 25.0474L19.5784 25.536L19.0518 22.0396Z" fill="#FFCC00"/>
<path d="M22.0601 43.2009H18.8974V44.7822L22.0601 43.2009Z" fill="#FFCC00"/>
<path d="M22.0601 43.2009L19.5014 45.0599L18.572 43.7806L22.0601 43.2009Z" fill="#FFCC00"/>
<path d="M20.9116 46.7366L19.9343 43.7287L18.4304 44.2174L20.9116 46.7366Z" fill="#FFCC00"/>
<path d="M20.9116 46.7366L18.353 44.8776L19.2825 43.5983L20.9116 46.7366Z" fill="#FFCC00"/>
<path d="M17.1919 46.7373L19.7505 44.8784L18.821 43.5991L17.1919 46.7373Z" fill="#FFCC00"/>
<path d="M17.1919 46.7373L18.1692 43.7295L19.6731 44.2181L17.1919 46.7373Z" fill="#FFCC00"/>
<path d="M19.0522 41.0156L20.0295 44.0235L18.5256 44.5121L19.0522 41.0156Z" fill="#FFCC00"/>
<path d="M19.0522 41.0156L18.0749 44.0235L19.5789 44.5121L19.0522 41.0156Z" fill="#FFCC00"/>
<path d="M16.0444 43.2012H19.2071V44.7825L16.0444 43.2012Z" fill="#FFCC00"/>
<path d="M16.0444 43.2012L18.603 45.0601L19.5325 43.7808L16.0444 43.2012Z" fill="#FFCC00"/>
<path d="M29.0063 50.1458H25.8437V51.7271L29.0063 50.1458Z" fill="#FFCC00"/>
<path d="M29.0063 50.1458L26.4477 52.0047L25.5183 50.7254L29.0063 50.1458Z" fill="#FFCC00"/>
<path d="M27.8574 53.6819L26.8801 50.6741L25.3762 51.1627L27.8574 53.6819Z" fill="#FFCC00"/>
<path d="M27.8574 53.6819L25.2988 51.8229L26.2283 50.5436L27.8574 53.6819Z" fill="#FFCC00"/>
<path d="M24.1392 53.6821L26.6978 51.8232L25.7683 50.5439L24.1392 53.6821Z" fill="#FFCC00"/>
<path d="M24.1392 53.6821L25.1165 50.6743L26.6204 51.163L24.1392 53.6821Z" fill="#FFCC00"/>
<path d="M25.9985 47.9609L26.9758 50.9688L25.4719 51.4574L25.9985 47.9609Z" fill="#FFCC00"/>
<path d="M25.9985 47.9609L25.0212 50.9688L26.5251 51.4574L25.9985 47.9609Z" fill="#FFCC00"/>
<path d="M22.9907 50.146H26.1533V51.7273L22.9907 50.146Z" fill="#FFCC00"/>
<path d="M22.9907 50.146L25.5493 52.0049L26.4788 50.7256L22.9907 50.146Z" fill="#FFCC00"/>
<path d="M54.4609 31.5276L55.4382 34.5354L53.9343 35.0241L54.4609 31.5276Z" fill="#FFCC00"/>
<path d="M54.4609 31.5276L53.4836 34.5354L54.9875 35.0241L54.4609 31.5276Z" fill="#FFCC00"/>
<path d="M51.4536 33.7124H54.6162V35.2937L51.4536 33.7124Z" fill="#FFCC00"/>
<path d="M51.4536 33.7124L54.0122 35.5713L54.9417 34.292L51.4536 33.7124Z" fill="#FFCC00"/>
<path d="M52.6021 37.2485L53.5794 34.2407L55.0833 34.7294L52.6021 37.2485Z" fill="#FFCC00"/>
<path d="M52.6021 37.2485L55.1607 35.3896L54.2312 34.1103L52.6021 37.2485Z" fill="#FFCC00"/>
<path d="M57.4683 33.7126H54.3056V35.294L57.4683 33.7126Z" fill="#FFCC00"/>
<path d="M57.4683 33.7126L54.9096 35.5716L53.9802 34.2923L57.4683 33.7126Z" fill="#FFCC00"/>
<path d="M56.3203 37.2483L55.343 34.2405L53.8391 34.7291L56.3203 37.2483Z" fill="#FFCC00"/>
<path d="M56.3203 37.2483L53.7617 35.3893L54.6912 34.11L56.3203 37.2483Z" fill="#FFCC00"/>
<path d="M46.833 20.8157L44.2744 18.9567L45.2039 17.6774L46.833 20.8157Z" fill="#FFCC00"/>
<path d="M46.833 20.8157L45.8557 17.8078L44.3518 18.2965L46.833 20.8157Z" fill="#FFCC00"/>
<path d="M47.9819 17.2798L45.4233 19.1387L44.4938 17.8594L47.9819 17.2798Z" fill="#FFCC00"/>
<path d="M47.9819 17.2798H44.8193V18.8611L47.9819 17.2798Z" fill="#FFCC00"/>
<path d="M44.9741 15.094L45.9514 18.1018L44.4475 18.5905L44.9741 15.094Z" fill="#FFCC00"/>
<path d="M44.9741 15.094L43.9968 18.1018L45.5007 18.5905L44.9741 15.094Z" fill="#FFCC00"/>
<path d="M43.1147 20.8154L45.6734 18.9565L44.7439 17.6772L43.1147 20.8154Z" fill="#FFCC00"/>
<path d="M43.1147 20.8154L44.092 17.8076L45.596 18.2963L43.1147 20.8154Z" fill="#FFCC00"/>
<path d="M41.9658 17.2798L44.5244 19.1387L45.4539 17.8594L41.9658 17.2798Z" fill="#FFCC00"/>
<path d="M41.9658 17.2798H45.1284V18.8611L41.9658 17.2798Z" fill="#FFCC00"/>
<path d="M50.0615 27.7615L51.0388 24.7536L52.5427 25.2423L50.0615 27.7615Z" fill="#FFCC00"/>
<path d="M50.0615 27.7615L52.6201 25.9025L51.6907 24.6232L50.0615 27.7615Z" fill="#FFCC00"/>
<path d="M53.7788 27.7612L51.2202 25.9023L52.1497 24.623L53.7788 27.7612Z" fill="#FFCC00"/>
<path d="M53.7788 27.7612L52.8015 24.7534L51.2976 25.2421L53.7788 27.7612Z" fill="#FFCC00"/>
<path d="M54.9277 24.2256L52.3691 26.0845L51.4397 24.8052L54.9277 24.2256Z" fill="#FFCC00"/>
<path d="M54.9277 24.2256H51.7651V25.8069L54.9277 24.2256Z" fill="#FFCC00"/>
<path d="M48.9102 24.2253L51.4688 26.0843L52.3982 24.805L48.9102 24.2253Z" fill="#FFCC00"/>
<path d="M48.9102 24.2253H52.0728V25.8067L48.9102 24.2253Z" fill="#FFCC00"/>
<path d="M51.9189 22.0398L50.9416 25.0476L52.4456 25.5363L51.9189 22.0398Z" fill="#FFCC00"/>
<path d="M51.9189 22.0398L52.8962 25.0476L51.3923 25.5363L51.9189 22.0398Z" fill="#FFCC00"/>
<path d="M48.9116 43.2009H52.0742V44.7822L48.9116 43.2009Z" fill="#FFCC00"/>
<path d="M48.9116 43.2009L51.4702 45.0599L52.3997 43.7806L48.9116 43.2009Z" fill="#FFCC00"/>
<path d="M50.061 46.7366L51.0383 43.7287L52.5423 44.2174L50.061 46.7366Z" fill="#FFCC00"/>
<path d="M50.061 46.7366L52.6196 44.8776L51.6902 43.5983L50.061 46.7366Z" fill="#FFCC00"/>
<path d="M53.7788 46.7371L51.2202 44.8781L52.1497 43.5988L53.7788 46.7371Z" fill="#FFCC00"/>
<path d="M53.7788 46.7371L52.8015 43.7292L51.2976 44.2179L53.7788 46.7371Z" fill="#FFCC00"/>
<path d="M51.9199 41.0156L50.9426 44.0235L52.4465 44.5121L51.9199 41.0156Z" fill="#FFCC00"/>
<path d="M51.9199 41.0156L52.8972 44.0235L51.3933 44.5121L51.9199 41.0156Z" fill="#FFCC00"/>
<path d="M54.9272 43.2009H51.7646V44.7822L54.9272 43.2009Z" fill="#FFCC00"/>
<path d="M54.9272 43.2009L52.3686 45.0599L51.4392 43.7806L54.9272 43.2009Z" fill="#FFCC00"/>
<path d="M41.9658 50.146H45.1284V51.7273L41.9658 50.146Z" fill="#FFCC00"/>
<path d="M41.9658 50.146L44.5244 52.0049L45.4539 50.7256L41.9658 50.146Z" fill="#FFCC00"/>
<path d="M43.1143 53.6821L44.0916 50.6743L45.5955 51.163L43.1143 53.6821Z" fill="#FFCC00"/>
<path d="M43.1143 53.6821L45.6729 51.8232L44.7434 50.5439L43.1143 53.6821Z" fill="#FFCC00"/>
<path d="M46.832 53.6826L44.2734 51.8237L45.2029 50.5444L46.832 53.6826Z" fill="#FFCC00"/>
<path d="M46.832 53.6826L45.8547 50.6748L44.3508 51.1634L46.832 53.6826Z" fill="#FFCC00"/>
<path d="M44.9731 47.9609L43.9958 50.9688L45.4998 51.4574L44.9731 47.9609Z" fill="#FFCC00"/>
<path d="M44.9731 47.9609L45.9504 50.9688L44.4465 51.4574L44.9731 47.9609Z" fill="#FFCC00"/>
<path d="M47.9805 50.1462H44.8179V51.7275L47.9805 50.1462Z" fill="#FFCC00"/>
<path d="M47.9805 50.1462L45.4219 52.0052L44.4924 50.7259L47.9805 50.1462Z" fill="#FFCC00"/>
<path fill-rule="evenodd" clip-rule="evenodd" d="M33.4699 28.7087C34.0045 28.1741 34.7296 27.8738 35.4856 27.8738C36.2416 27.8738 36.9667 28.1741 37.5013 28.7087C38.0358 29.2433 38.3362 29.9683 38.3362 30.7243V33.5749C38.3362 33.5749 38.3362 33.575 38.3362 33.575H32.635C32.635 33.575 32.635 33.5749 32.635 33.5749V30.7243C32.635 29.9683 32.9354 29.2433 33.4699 28.7087ZM31.2097 33.575C31.2097 33.575 31.2097 33.5749 31.2097 33.5749V30.7243C31.2097 29.5903 31.6602 28.5027 32.4621 27.7009C33.264 26.899 34.3516 26.4485 35.4856 26.4485C36.6196 26.4485 37.7072 26.899 38.5091 27.7009C39.311 28.5027 39.7615 29.5903 39.7615 30.7243V33.5749C39.7615 33.5749 39.7615 33.575 39.7615 33.575H40.4734C41.2605 33.575 41.8987 34.2131 41.8987 35.0003V39.9888C41.8987 40.7759 41.2605 41.4141 40.4734 41.4141H30.4964C29.7092 41.4141 29.0711 40.7759 29.0711 39.9888V35.0003C29.0711 34.2131 29.7092 33.575 30.4964 33.575H31.2097Z" fill="white"/>
<mask id="path-123-inside-1_18625_353878" fill="white">
<path d="M66.4854 4H162.694C169.778 4 175.521 9.74311 175.521 16.8276V53.1724C175.521 60.2569 169.778 66 162.694 66H66.4854V4Z"/>
</mask>
<path d="M66.4854 4H162.694C169.778 4 175.521 9.74311 175.521 16.8276V53.1724C175.521 60.2569 169.778 66 162.694 66H66.4854V4Z" fill="white"/>
<path d="M84.4894 31.4564C82.9874 31.4564 81.7467 30.9953 80.7675 30.0732C79.7978 29.151 79.313 27.8961 79.313 26.3085C79.313 24.7969 79.7741 23.5515 80.6962 22.5723C81.6184 21.5931 82.8543 21.1035 84.4039 21.1035C85.1549 21.1035 85.8869 21.2509 86.5999 21.5456C87.313 21.8403 87.9214 22.2729 88.4252 22.8433L86.9992 24.0411C86.2767 23.3471 85.4116 23.0001 84.4039 23.0001C83.5483 23.0001 82.8353 23.2996 82.2648 23.8985C81.6944 24.4974 81.4092 25.3008 81.4092 26.3085C81.4092 27.2592 81.6897 28.0482 82.2506 28.6757C82.8115 29.3031 83.5578 29.6168 84.4894 29.6168C85.231 29.6168 85.9155 29.4267 86.5429 29.0464V27.5491H84.2613V25.8379H88.468V30.2015C88.0022 30.5818 87.4128 30.886 86.6998 31.1142C85.9868 31.3423 85.25 31.4564 84.4894 31.4564Z" fill="#232323"/>
<path d="M90.4635 31.3566V21.2319H93.8146C95.4022 21.2319 96.6761 21.7024 97.6363 22.6436C98.5965 23.5753 99.0766 24.7969 99.0766 26.3085C99.0766 27.8201 98.606 29.0417 97.6648 29.9734C96.7332 30.8955 95.464 31.3566 93.8574 31.3566H90.4635ZM92.4456 29.5741H93.729C94.6987 29.5741 95.483 29.2651 96.082 28.6472C96.6904 28.0292 96.9946 27.2497 96.9946 26.3085C96.9946 25.3578 96.6999 24.5735 96.1105 23.9556C95.5211 23.3376 94.77 23.0286 93.8574 23.0286H92.4456V29.5741Z" fill="#232323"/>
<path d="M100.88 31.3566V21.2319H104.631C105.809 21.2319 106.689 21.5408 107.269 22.1588C107.858 22.7672 108.153 23.58 108.153 24.5973C108.153 25.681 107.82 26.5034 107.155 27.0643C106.499 27.6157 105.595 27.8914 104.445 27.8914H102.862V31.3566H100.88ZM102.862 26.1088H104.188C104.806 26.1088 105.272 25.971 105.586 25.6953C105.909 25.4196 106.071 25.0393 106.071 24.5545C106.071 24.0791 105.914 23.7036 105.6 23.4279C105.286 23.1522 104.844 23.0144 104.274 23.0144H102.862V26.1088Z" fill="#232323"/>
<path d="M117.565 31.3566H115.198L112.93 27.8914H111.761V31.3566H109.779V21.2319H113.615C114.784 21.2319 115.663 21.5408 116.253 22.1588C116.842 22.7672 117.137 23.58 117.137 24.5973C117.137 26.1754 116.443 27.1926 115.055 27.6489L117.565 31.3566ZM111.761 23.0144V26.1231H113.158C113.767 26.1231 114.237 25.9853 114.57 25.7096C114.903 25.4244 115.069 25.0393 115.069 24.5545C115.069 24.0791 114.908 23.7036 114.584 23.4279C114.271 23.1522 113.824 23.0144 113.244 23.0144H111.761Z" fill="#232323"/>
<path d="M84.3611 48.8823C82.9256 48.8823 81.723 48.4307 80.7533 47.5276C79.7931 46.6244 79.313 45.379 79.313 43.7914C79.313 42.2893 79.7598 41.0487 80.6534 40.0695C81.5566 39.0808 82.7925 38.5864 84.3611 38.5864C85.9582 38.5864 87.2749 39.2329 88.3112 40.5258L87.3843 41.2959C86.5762 40.2786 85.5685 39.77 84.3611 39.77C83.2203 39.77 82.3076 40.1455 81.6231 40.8966C80.9482 41.6381 80.6107 42.603 80.6107 43.7914C80.6107 44.9797 80.9624 45.9304 81.6659 46.6434C82.3694 47.3469 83.2678 47.6987 84.3611 47.6987C85.5685 47.6987 86.5762 47.1948 87.3843 46.1871L88.3112 46.9714C87.2844 48.2453 85.9677 48.8823 84.3611 48.8823Z" fill="#232323"/>
<path d="M94.7787 48.8965C93.2766 48.8965 92.0503 48.4117 91.0996 47.442C90.1584 46.4628 89.6878 45.2317 89.6878 43.7486C89.6878 42.2656 90.1584 41.0344 91.0996 40.0552C92.0503 39.076 93.2766 38.5864 94.7787 38.5864C96.2238 38.5864 97.4264 39.0665 98.3865 40.0267C99.3467 40.9774 99.8268 42.218 99.8268 43.7486C99.8268 45.2697 99.3467 46.5103 98.3865 47.4705C97.4264 48.4212 96.2238 48.8965 94.7787 48.8965ZM94.7787 47.7129C95.8435 47.7129 96.7324 47.3422 97.4454 46.6007C98.1679 45.8496 98.5291 44.8989 98.5291 43.7486C98.5291 42.5888 98.1679 41.6381 97.4454 40.8966C96.7324 40.1455 95.8435 39.77 94.7787 39.77C93.6664 39.77 92.7538 40.155 92.0408 40.9251C91.3278 41.6856 90.9712 42.6268 90.9712 43.7486C90.9712 44.8704 91.3278 45.8116 92.0408 46.5721C92.7538 47.3327 93.6664 47.7129 94.7787 47.7129Z" fill="#232323"/>
<path d="M110.68 38.6862H111.921V48.811H110.68V41.0534H110.652L107.358 46.7718H106.516L103.222 41.0534H103.194V48.811H101.953V38.6862H103.208L106.93 45.2317H106.958L110.68 38.6862Z" fill="#232323"/>
<path d="M114.486 48.811V38.6862H118.037C119.169 38.6862 120.01 38.9715 120.561 39.5419C121.113 40.1123 121.388 40.8728 121.388 41.8235C121.388 42.8597 121.065 43.6393 120.419 44.1622C119.782 44.685 118.917 44.9465 117.823 44.9465H115.727V48.811H114.486ZM115.727 43.8057H117.709C118.517 43.8057 119.116 43.625 119.506 43.2638C119.896 42.9025 120.091 42.4129 120.091 41.795C120.091 41.158 119.896 40.6732 119.506 40.3404C119.126 39.9982 118.593 39.8271 117.909 39.8271H115.727V43.8057Z" fill="#232323"/>
<path d="M123.302 48.811V38.6862H124.542V47.6702H129.562V48.811H123.302Z" fill="#232323"/>
<path d="M131.38 48.811V38.6862H132.635V48.811H131.38Z" fill="#232323"/>
<path d="M141.981 48.811L141.083 46.344H136.562L135.664 48.811H134.352L138.188 38.6862H139.429L143.293 48.811H141.981ZM136.962 45.2602H140.683L138.83 40.1978H138.801L136.962 45.2602Z" fill="#232323"/>
<path d="M151.93 38.6862H153.17V48.811H151.901L146.226 40.8253H146.197V48.811H144.956V38.6862H146.183L151.901 46.7575H151.93V38.6862Z" fill="#232323"/>
<path d="M157.931 48.811V39.8271H154.894V38.6862H162.224V39.8271H159.172V48.811H157.931Z" fill="#232323"/>
<path d="M66.4854 2.93103H162.694C170.369 2.93103 176.59 9.15273 176.59 16.8276H174.452C174.452 10.3335 169.188 5.06897 162.694 5.06897H66.4854V2.93103ZM176.59 53.1724C176.59 60.8473 170.369 67.069 162.694 67.069H66.4854V64.931H162.694C169.188 64.931 174.452 59.6665 174.452 53.1724H176.59ZM66.4854 66V4V66ZM162.694 2.93103C170.369 2.93103 176.59 9.15273 176.59 16.8276V53.1724C176.59 60.8473 170.369 67.069 162.694 67.069V64.931C169.188 64.931 174.452 59.6665 174.452 53.1724V16.8276C174.452 10.3335 169.188 5.06897 162.694 5.06897V2.93103Z" fill="#232323" fill-opacity="0.1" mask="url(#path-123-inside-1_18625_353878)"/>
</g>
<defs>
<filter id="filter0_d_18625_353878" x="0.485352" y="0" width="179.036" height="70" filterUnits="userSpaceOnUse" color-interpolation-filters="sRGB">
<feFlood flood-opacity="0" result="BackgroundImageFix"/>
<feColorMatrix in="SourceAlpha" type="matrix" values="0 0 0 0 0 0 0 0 0 0 0 0 0 0 0 0 0 0 127 0" result="hardAlpha"/>
<feOffset/>
<feGaussianBlur stdDeviation="2"/>
<feColorMatrix type="matrix" values="0 0 0 0 0 0 0 0 0 0 0 0 0 0 0 0 0 0 0.04 0"/>
<feBlend mode="normal" in2="BackgroundImageFix" result="effect1_dropShadow_18625_353878"/>
<feBlend mode="normal" in="SourceGraphic" in2="effect1_dropShadow_18625_353878" result="shape"/>
</filter>
</defs>
</svg>
