<svg width="121" height="52" viewBox="0 0 121 52" fill="none" xmlns="http://www.w3.org/2000/svg">
<g filter="url(#filter0_d_29_1091)">
<path d="M4 13C4 8.02944 8.02944 4 13 4H47.5V47.5H13C8.02944 47.5 4 43.4706 4 38.5V13Z" fill="#003399"/>
<path d="M15.9801 19.0506C15.9801 18.2362 16.3036 17.4551 16.8795 16.8792C17.4554 16.3033 18.2365 15.9798 19.0509 15.9798H20.4467C21.2576 15.9793 22.0353 15.6582 22.6103 15.0865L23.5873 14.1094C23.8727 13.8224 24.212 13.5947 24.5857 13.4393C24.9594 13.2839 25.3601 13.2039 25.7648 13.2039C26.1696 13.2039 26.5703 13.2839 26.944 13.4393C27.3177 13.5947 27.657 13.8224 27.9423 14.1094L28.9194 15.0865C29.4945 15.6588 30.2734 15.9798 31.083 15.9798H32.4788C33.2932 15.9798 34.0743 16.3033 34.6502 16.8792C35.2261 17.4551 35.5496 18.2362 35.5496 19.0506V20.4465C35.5496 21.2561 35.8707 22.0349 36.443 22.61L37.4201 23.5871C37.707 23.8725 37.9348 24.2118 38.0902 24.5855C38.2456 24.9592 38.3256 25.3599 38.3256 25.7646C38.3256 26.1693 38.2456 26.5701 38.0902 26.9437C37.9348 27.3174 37.707 27.6567 37.4201 27.9421L36.443 28.9192C35.8712 29.4941 35.5501 30.2719 35.5496 31.0827V32.4786C35.5496 33.293 35.2261 34.0741 34.6502 34.65C34.0743 35.2259 33.2932 35.5494 32.4788 35.5494H31.083C30.2721 35.5499 29.4944 35.871 28.9194 36.4427L27.9423 37.4198C27.657 37.7068 27.3177 37.9345 26.944 38.0899C26.5703 38.2453 26.1696 38.3254 25.7648 38.3254C25.3601 38.3254 24.9594 38.2453 24.5857 38.0899C24.212 37.9345 23.8727 37.7068 23.5873 37.4198L22.6103 36.4427C22.0353 35.871 21.2576 35.5499 20.4467 35.5494H19.0509C18.2365 35.5494 17.4554 35.2259 16.8795 34.65C16.3036 34.0741 15.9801 33.293 15.9801 32.4786V31.0827C15.9796 30.2719 15.6585 29.4941 15.0867 28.9192L14.1096 27.9421C13.8227 27.6567 13.5949 27.3174 13.4395 26.9437C13.2841 26.5701 13.2041 26.1693 13.2041 25.7646C13.2041 25.3599 13.2841 24.9592 13.4395 24.5855C13.5949 24.2118 13.8227 23.8725 14.1096 23.5871L15.0867 22.61C15.6585 22.0351 15.9796 21.2573 15.9801 20.4465V19.0506Z" fill="#00B592"/>
<path d="M15.9801 19.0506C15.9801 18.2362 16.3036 17.4551 16.8795 16.8792C17.4554 16.3033 18.2365 15.9798 19.0509 15.9798H20.4467C21.2576 15.9793 22.0353 15.6582 22.6103 15.0865L23.5873 14.1094C23.8727 13.8224 24.212 13.5947 24.5857 13.4393C24.9594 13.2839 25.3601 13.2039 25.7648 13.2039C26.1696 13.2039 26.5703 13.2839 26.944 13.4393C27.3177 13.5947 27.657 13.8224 27.9423 14.1094L28.9194 15.0865C29.4945 15.6588 30.2734 15.9798 31.083 15.9798H32.4788C33.2932 15.9798 34.0743 16.3033 34.6502 16.8792C35.2261 17.4551 35.5496 18.2362 35.5496 19.0506V20.4465C35.5496 21.2561 35.8707 22.0349 36.443 22.61L37.4201 23.5871C37.707 23.8725 37.9348 24.2118 38.0902 24.5855C38.2456 24.9592 38.3256 25.3599 38.3256 25.7646C38.3256 26.1693 38.2456 26.5701 38.0902 26.9437C37.9348 27.3174 37.707 27.6567 37.4201 27.9421L36.443 28.9192C35.8712 29.4941 35.5501 30.2719 35.5496 31.0827V32.4786C35.5496 33.293 35.2261 34.0741 34.6502 34.65C34.0743 35.2259 33.2932 35.5494 32.4788 35.5494H31.083C30.2721 35.5499 29.4944 35.871 28.9194 36.4427L27.9423 37.4198C27.657 37.7068 27.3177 37.9345 26.944 38.0899C26.5703 38.2453 26.1696 38.3254 25.7648 38.3254C25.3601 38.3254 24.9594 38.2453 24.5857 38.0899C24.212 37.9345 23.8727 37.7068 23.5873 37.4198L22.6103 36.4427C22.0353 35.871 21.2576 35.5499 20.4467 35.5494H19.0509C18.2365 35.5494 17.4554 35.2259 16.8795 34.65C16.3036 34.0741 15.9801 33.293 15.9801 32.4786V31.0827C15.9796 30.2719 15.6585 29.4941 15.0867 28.9192L14.1096 27.9421C13.8227 27.6567 13.5949 27.3174 13.4395 26.9437C13.2841 26.5701 13.2041 26.1693 13.2041 25.7646C13.2041 25.3599 13.2841 24.9592 13.4395 24.5855C13.5949 24.2118 13.8227 23.8725 14.1096 23.5871L15.0867 22.61C15.6585 22.0351 15.9796 21.2573 15.9801 20.4465V19.0506Z" fill="url(#paint0_linear_29_1091)"/>
<path d="M15.9801 19.0506C15.9801 18.2362 16.3036 17.4551 16.8795 16.8792C17.4554 16.3033 18.2365 15.9798 19.0509 15.9798H20.4467C21.2576 15.9793 22.0353 15.6582 22.6103 15.0865L23.5873 14.1094C23.8727 13.8224 24.212 13.5947 24.5857 13.4393C24.9594 13.2839 25.3601 13.2039 25.7648 13.2039C26.1696 13.2039 26.5703 13.2839 26.944 13.4393C27.3177 13.5947 27.657 13.8224 27.9423 14.1094L28.9194 15.0865C29.4945 15.6588 30.2734 15.9798 31.083 15.9798H32.4788C33.2932 15.9798 34.0743 16.3033 34.6502 16.8792C35.2261 17.4551 35.5496 18.2362 35.5496 19.0506V20.4465C35.5496 21.2561 35.8707 22.0349 36.443 22.61L37.4201 23.5871C37.707 23.8725 37.9348 24.2118 38.0902 24.5855C38.2456 24.9592 38.3256 25.3599 38.3256 25.7646C38.3256 26.1693 38.2456 26.5701 38.0902 26.9437C37.9348 27.3174 37.707 27.6567 37.4201 27.9421L36.443 28.9192C35.8712 29.4941 35.5501 30.2719 35.5496 31.0827V32.4786C35.5496 33.293 35.2261 34.0741 34.6502 34.65C34.0743 35.2259 33.2932 35.5494 32.4788 35.5494H31.083C30.2721 35.5499 29.4944 35.871 28.9194 36.4427L27.9423 37.4198C27.657 37.7068 27.3177 37.9345 26.944 38.0899C26.5703 38.2453 26.1696 38.3254 25.7648 38.3254C25.3601 38.3254 24.9594 38.2453 24.5857 38.0899C24.212 37.9345 23.8727 37.7068 23.5873 37.4198L22.6103 36.4427C22.0353 35.871 21.2576 35.5499 20.4467 35.5494H19.0509C18.2365 35.5494 17.4554 35.2259 16.8795 34.65C16.3036 34.0741 15.9801 33.293 15.9801 32.4786V31.0827C15.9796 30.2719 15.6585 29.4941 15.0867 28.9192L14.1096 27.9421C13.8227 27.6567 13.5949 27.3174 13.4395 26.9437C13.2841 26.5701 13.2041 26.1693 13.2041 25.7646C13.2041 25.3599 13.2841 24.9592 13.4395 24.5855C13.5949 24.2118 13.8227 23.8725 14.1096 23.5871L15.0867 22.61C15.6585 22.0351 15.9796 21.2573 15.9801 20.4465V19.0506Z" stroke="#00B592" stroke-width="1.45652" stroke-linecap="round" stroke-linejoin="round"/>
<path d="M34.8212 19.0513C34.8212 18.43 34.5742 17.8342 34.1349 17.3949C33.6956 16.9556 33.0998 16.7086 32.4786 16.7086H31.0825C30.0806 16.7086 29.1171 16.3115 28.4056 15.6034L27.4256 14.6234C27.2079 14.4046 26.9489 14.2313 26.6639 14.1128C26.3789 13.9943 26.0735 13.9329 25.7649 13.9328C25.4562 13.9328 25.1503 13.9942 24.8653 14.1128C24.5803 14.2313 24.3212 14.4046 24.1036 14.6234L23.1236 15.6034C22.4567 16.2666 21.5693 16.6577 20.6344 16.7044L20.4466 16.7086H19.0506C18.4293 16.7086 17.8335 16.9556 17.3942 17.3949C16.9549 17.8342 16.7079 18.43 16.7079 19.0513V20.4474L16.7036 20.6351C16.6569 21.57 16.2658 22.4574 15.6027 23.1243L14.6227 24.1043C14.4038 24.322 14.2306 24.581 14.112 24.866C13.9935 25.1511 13.9321 25.4569 13.9321 25.7657C13.9322 26.0743 13.9935 26.3797 14.112 26.6646C14.2306 26.9496 14.4038 27.2086 14.6227 27.4263L15.6027 28.4063C16.31 29.1176 16.7073 30.0801 16.7079 31.0832V32.4793C16.7079 33.1006 16.9549 33.6964 17.3942 34.1357C17.8335 34.575 18.4293 34.822 19.0506 34.822H20.4466L20.6344 34.8262C21.5068 34.8698 22.3379 35.2132 22.987 35.7977L23.1236 35.9272L24.1036 36.9072C24.3212 37.1261 24.5802 37.3 24.8653 37.4185C25.1503 37.537 25.4563 37.5978 25.7649 37.5978C26.0734 37.5977 26.379 37.537 26.6639 37.4185C26.9489 37.3 27.2079 37.126 27.4256 36.9072L28.4056 35.9272C29.1169 35.2198 30.0794 34.8226 31.0825 34.822H32.4786C33.0999 34.822 33.6956 34.575 34.1349 34.1357C34.5743 33.6964 34.8212 33.1006 34.8212 32.4793V31.0832L34.8255 30.8955C34.8722 29.9606 35.2633 29.0732 35.9264 28.4063L36.9065 27.4263C37.1253 27.2086 37.2993 26.9496 37.4178 26.6646C37.5362 26.3797 37.597 26.0742 37.597 25.7657C37.597 25.457 37.5363 25.151 37.4178 24.866C37.2993 24.581 37.1253 24.322 36.9065 24.1043L35.9264 23.1243C35.2184 22.4127 34.8213 21.4493 34.8212 20.4474V19.0513ZM36.2778 20.4474C36.2778 21.0639 36.522 21.6575 36.9577 22.0959L37.9334 23.0717L38.0629 23.2068C38.3573 23.53 38.5944 23.9018 38.7627 24.3063C38.9549 24.7686 39.0536 25.265 39.0536 25.7657C39.0535 26.2662 38.9549 26.7621 38.7627 27.2243C38.5707 27.6859 38.2884 28.1041 37.9341 28.4568L37.9348 28.4575L36.9577 29.4347C36.5224 29.8732 36.2781 30.4661 36.2778 31.084V32.4793C36.2778 33.4869 35.8772 34.453 35.1648 35.1655C34.4523 35.8779 33.4862 36.2785 32.4786 36.2785H31.0832L30.9673 36.2813C30.3909 36.3102 29.8437 36.551 29.4325 36.9598L28.4568 37.9356C28.1041 38.2898 27.6852 38.5714 27.2236 38.7634C26.7614 38.9556 26.2655 39.0542 25.7649 39.0543C25.2642 39.0543 24.7679 38.9557 24.3056 38.7634C23.844 38.5714 23.425 38.2898 23.0724 37.9356L22.0966 36.9598L22.0127 36.8802C21.6124 36.5197 21.0998 36.3083 20.5618 36.2813L20.4459 36.2785H19.0506C18.043 36.2785 17.0768 35.8779 16.3644 35.1655C15.6519 34.453 15.2514 33.4869 15.2514 32.4793V31.084L15.2485 30.968C15.2197 30.3923 14.9795 29.8457 14.5715 29.4347L13.5943 28.4575V28.4568C13.2403 28.1042 12.9591 27.6856 12.7672 27.2243C12.575 26.7621 12.4756 26.2662 12.4756 25.7657C12.4756 25.265 12.5749 24.7686 12.7672 24.3063C12.9594 23.8442 13.2409 23.4246 13.5957 23.0717L14.5715 22.0959C15.0066 21.6576 15.2509 21.0651 15.2514 20.4474V19.0513C15.2514 18.0437 15.6519 17.0776 16.3644 16.3651C17.0768 15.6527 18.043 15.2521 19.0506 15.2521H20.4459C21.0645 15.2517 21.658 15.0069 22.0966 14.5708L23.0724 13.595C23.425 13.2408 23.8441 12.9599 24.3056 12.7679C24.7679 12.5756 25.2642 12.4763 25.7649 12.4763C26.2655 12.4764 26.7614 12.5757 27.2236 12.7679C27.6851 12.9599 28.1042 13.2408 28.4568 13.595L29.4325 14.5708C29.8711 15.0072 30.4655 15.252 31.0825 15.2521H32.4786C33.4861 15.2521 34.4523 15.6527 35.1648 16.3651C35.8772 17.0776 36.2777 18.0437 36.2778 19.0513V20.4474Z" fill="#00B592"/>
<path d="M34.8212 19.0513C34.8212 18.43 34.5742 17.8342 34.1349 17.3949C33.6956 16.9556 33.0998 16.7086 32.4786 16.7086H31.0825C30.0806 16.7086 29.1171 16.3115 28.4056 15.6034L27.4256 14.6234C27.2079 14.4046 26.9489 14.2313 26.6639 14.1128C26.3789 13.9943 26.0735 13.9329 25.7649 13.9328C25.4562 13.9328 25.1503 13.9942 24.8653 14.1128C24.5803 14.2313 24.3212 14.4046 24.1036 14.6234L23.1236 15.6034C22.4567 16.2666 21.5693 16.6577 20.6344 16.7044L20.4466 16.7086H19.0506C18.4293 16.7086 17.8335 16.9556 17.3942 17.3949C16.9549 17.8342 16.7079 18.43 16.7079 19.0513V20.4474L16.7036 20.6351C16.6569 21.57 16.2658 22.4574 15.6027 23.1243L14.6227 24.1043C14.4038 24.322 14.2306 24.581 14.112 24.866C13.9935 25.1511 13.9321 25.4569 13.9321 25.7657C13.9322 26.0743 13.9935 26.3797 14.112 26.6646C14.2306 26.9496 14.4038 27.2086 14.6227 27.4263L15.6027 28.4063C16.31 29.1176 16.7073 30.0801 16.7079 31.0832V32.4793C16.7079 33.1006 16.9549 33.6964 17.3942 34.1357C17.8335 34.575 18.4293 34.822 19.0506 34.822H20.4466L20.6344 34.8262C21.5068 34.8698 22.3379 35.2132 22.987 35.7977L23.1236 35.9272L24.1036 36.9072C24.3212 37.1261 24.5802 37.3 24.8653 37.4185C25.1503 37.537 25.4563 37.5978 25.7649 37.5978C26.0734 37.5977 26.379 37.537 26.6639 37.4185C26.9489 37.3 27.2079 37.126 27.4256 36.9072L28.4056 35.9272C29.1169 35.2198 30.0794 34.8226 31.0825 34.822H32.4786C33.0999 34.822 33.6956 34.575 34.1349 34.1357C34.5743 33.6964 34.8212 33.1006 34.8212 32.4793V31.0832L34.8255 30.8955C34.8722 29.9606 35.2633 29.0732 35.9264 28.4063L36.9065 27.4263C37.1253 27.2086 37.2993 26.9496 37.4178 26.6646C37.5362 26.3797 37.597 26.0742 37.597 25.7657C37.597 25.457 37.5363 25.151 37.4178 24.866C37.2993 24.581 37.1253 24.322 36.9065 24.1043L35.9264 23.1243C35.2184 22.4127 34.8213 21.4493 34.8212 20.4474V19.0513ZM36.2778 20.4474C36.2778 21.0639 36.522 21.6575 36.9577 22.0959L37.9334 23.0717L38.0629 23.2068C38.3573 23.53 38.5944 23.9018 38.7627 24.3063C38.9549 24.7686 39.0536 25.265 39.0536 25.7657C39.0535 26.2662 38.9549 26.7621 38.7627 27.2243C38.5707 27.6859 38.2884 28.1041 37.9341 28.4568L37.9348 28.4575L36.9577 29.4347C36.5224 29.8732 36.2781 30.4661 36.2778 31.084V32.4793C36.2778 33.4869 35.8772 34.453 35.1648 35.1655C34.4523 35.8779 33.4862 36.2785 32.4786 36.2785H31.0832L30.9673 36.2813C30.3909 36.3102 29.8437 36.551 29.4325 36.9598L28.4568 37.9356C28.1041 38.2898 27.6852 38.5714 27.2236 38.7634C26.7614 38.9556 26.2655 39.0542 25.7649 39.0543C25.2642 39.0543 24.7679 38.9557 24.3056 38.7634C23.844 38.5714 23.425 38.2898 23.0724 37.9356L22.0966 36.9598L22.0127 36.8802C21.6124 36.5197 21.0998 36.3083 20.5618 36.2813L20.4459 36.2785H19.0506C18.043 36.2785 17.0768 35.8779 16.3644 35.1655C15.6519 34.453 15.2514 33.4869 15.2514 32.4793V31.084L15.2485 30.968C15.2197 30.3923 14.9795 29.8457 14.5715 29.4347L13.5943 28.4575V28.4568C13.2403 28.1042 12.9591 27.6856 12.7672 27.2243C12.575 26.7621 12.4756 26.2662 12.4756 25.7657C12.4756 25.265 12.5749 24.7686 12.7672 24.3063C12.9594 23.8442 13.2409 23.4246 13.5957 23.0717L14.5715 22.0959C15.0066 21.6576 15.2509 21.0651 15.2514 20.4474V19.0513C15.2514 18.0437 15.6519 17.0776 16.3644 16.3651C17.0768 15.6527 18.043 15.2521 19.0506 15.2521H20.4459C21.0645 15.2517 21.658 15.0069 22.0966 14.5708L23.0724 13.595C23.425 13.2408 23.8441 12.9599 24.3056 12.7679C24.7679 12.5756 25.2642 12.4763 25.7649 12.4763C26.2655 12.4764 26.7614 12.5757 27.2236 12.7679C27.6851 12.9599 28.1042 13.2408 28.4568 13.595L29.4325 14.5708C29.8711 15.0072 30.4655 15.252 31.0825 15.2521H32.4786C33.4861 15.2521 34.4523 15.6527 35.1648 16.3651C35.8772 17.0776 36.2777 18.0437 36.2778 19.0513V20.4474Z" fill="url(#paint1_linear_29_1091)"/>
<path d="M21.5625 25.7499L24.3542 28.5415L29.9375 22.9582" stroke="white" stroke-width="2.18478" stroke-linecap="round" stroke-linejoin="round"/>
<mask id="path-5-inside-1_29_1091" fill="white">
<path d="M47.5 4H107.352C112.322 4 116.352 8.02944 116.352 13V38.5C116.352 43.4706 112.322 47.5 107.352 47.5H47.5V4Z"/>
</mask>
<path d="M47.5 4H107.352C112.322 4 116.352 8.02944 116.352 13V38.5C116.352 43.4706 112.322 47.5 107.352 47.5H47.5V4Z" fill="white"/>
<path d="M47.5 3.25H107.352C112.737 3.25 117.102 7.61522 117.102 13H115.602C115.602 8.44365 111.908 4.75 107.352 4.75H47.5V3.25ZM117.102 38.5C117.102 43.8848 112.737 48.25 107.352 48.25H47.5V46.75H107.352C111.908 46.75 115.602 43.0564 115.602 38.5H117.102ZM47.5 47.5V4V47.5ZM107.352 3.25C112.737 3.25 117.102 7.61522 117.102 13V38.5C117.102 43.8848 112.737 48.25 107.352 48.25V46.75C111.908 46.75 115.602 43.0564 115.602 38.5V13C115.602 8.44365 111.908 4.75 107.352 4.75V3.25Z" fill="#05424C" fill-opacity="0.1" mask="url(#path-5-inside-1_29_1091)"/>
<path d="M59.5 23.1198V16.1502H60.5116V23.1198H59.5Z" fill="#032126"/>
<path d="M64.4915 23.265C63.9913 23.265 63.5396 23.1795 63.1363 23.0085C62.7362 22.8342 62.4054 22.5874 62.1441 22.268C61.8859 21.9453 61.7182 21.5629 61.6407 21.1209L62.6958 20.9612C62.8023 21.3871 63.025 21.7194 63.3638 21.9582C63.7026 22.1938 64.0978 22.3115 64.5496 22.3115C64.8303 22.3115 65.0884 22.268 65.324 22.1808C65.5595 22.0905 65.7483 21.963 65.8902 21.7985C66.0354 21.6307 66.108 21.4306 66.108 21.1983C66.108 21.0725 66.0855 20.9612 66.0403 20.8644C65.9983 20.7676 65.9386 20.6837 65.8612 20.6127C65.787 20.5385 65.695 20.4756 65.5853 20.4239C65.4788 20.3691 65.3611 20.3223 65.232 20.2836L63.446 19.756C63.2718 19.7044 63.0943 19.6382 62.9136 19.5576C62.7329 19.4737 62.5668 19.3656 62.4151 19.2333C62.2667 19.0978 62.1457 18.9316 62.0521 18.7348C61.9585 18.5347 61.9118 18.2927 61.9118 18.0088C61.9118 17.5796 62.0215 17.2166 62.2409 16.9198C62.4635 16.6197 62.7636 16.3938 63.1411 16.2422C63.5186 16.0873 63.9413 16.0098 64.4092 16.0098C64.8803 16.0163 65.3014 16.1002 65.6724 16.2615C66.0467 16.4229 66.3565 16.6552 66.6017 16.9585C66.8502 17.2586 67.0212 17.6232 67.1148 18.0523L66.0306 18.2362C65.9822 17.9749 65.8789 17.7506 65.7208 17.5635C65.5627 17.3731 65.3691 17.2279 65.14 17.1279C64.9109 17.0246 64.6625 16.9714 64.3947 16.9682C64.1365 16.9617 63.8994 17.0004 63.6832 17.0843C63.4702 17.1682 63.2992 17.286 63.1702 17.4376C63.0443 17.5893 62.9814 17.7635 62.9814 17.9604C62.9814 18.154 63.0379 18.3105 63.1508 18.4298C63.2637 18.5492 63.4025 18.6444 63.567 18.7154C63.7348 18.7832 63.901 18.8396 64.0656 18.8848L65.353 19.2478C65.5143 19.293 65.6966 19.3543 65.8999 19.4317C66.1064 19.5059 66.3049 19.6108 66.4952 19.7463C66.6888 19.8818 66.8486 20.0625 66.9744 20.2884C67.1002 20.511 67.1632 20.7918 67.1632 21.1306C67.1632 21.4823 67.0922 21.792 66.9502 22.0598C66.8082 22.3244 66.613 22.5471 66.3646 22.7278C66.1193 22.9052 65.8354 23.0391 65.5127 23.1295C65.1901 23.2198 64.8496 23.265 64.4915 23.265Z" fill="#032126"/>
<path d="M71.1034 23.265C70.4065 23.265 69.8128 23.1134 69.3223 22.81C68.8319 22.5035 68.456 22.0776 68.1946 21.5323C67.9365 20.987 67.8074 20.3546 67.8074 19.635C67.8074 18.9155 67.9365 18.283 68.1946 17.7377C68.456 17.1924 68.8319 16.7681 69.3223 16.4648C69.8128 16.1583 70.4065 16.005 71.1034 16.005C71.7972 16.005 72.3893 16.1583 72.8797 16.4648C73.3734 16.7681 73.7493 17.1924 74.0074 17.7377C74.2656 18.283 74.3946 18.9155 74.3946 19.635C74.3946 20.3546 74.2656 20.987 74.0074 21.5323C73.7493 22.0776 73.3734 22.5035 72.8797 22.81C72.3893 23.1134 71.7972 23.265 71.1034 23.265ZM71.1034 22.3018C71.5971 22.3083 72.0069 22.2002 72.3328 21.9776C72.6619 21.7517 72.9088 21.4387 73.0733 21.0386C73.2379 20.6353 73.3202 20.1674 73.3202 19.635C73.3202 19.1026 73.2379 18.638 73.0733 18.2411C72.9088 17.841 72.6619 17.5296 72.3328 17.307C72.0069 17.0843 71.5971 16.9714 71.1034 16.9682C70.6098 16.9617 70.1984 17.0698 69.8692 17.2924C69.5434 17.5151 69.2981 17.8281 69.1336 18.2314C68.969 18.6347 68.8851 19.1026 68.8819 19.635C68.8787 20.1674 68.9593 20.6337 69.1239 21.0338C69.2884 21.4306 69.5353 21.7404 69.8644 21.963C70.1968 22.1857 70.6098 22.2986 71.1034 22.3018Z" fill="#032126"/>
<path d="M77.1044 23.115L77.1092 22.2147L80.1439 19.4946C80.3891 19.2785 80.5553 19.072 80.6424 18.8751C80.7328 18.6783 80.7779 18.4815 80.7779 18.2846C80.7779 18.0362 80.7231 17.8136 80.6134 17.6167C80.5037 17.4167 80.352 17.2586 80.1584 17.1424C79.9648 17.0262 79.7422 16.9682 79.4905 16.9682C79.2324 16.9682 79.0016 17.0295 78.7984 17.1521C78.5983 17.2715 78.4418 17.4312 78.3289 17.6312C78.216 17.8313 78.1611 18.0475 78.1643 18.2798H77.1286C77.1286 17.8281 77.2302 17.4328 77.4335 17.094C77.64 16.752 77.9223 16.4858 78.2805 16.2954C78.6386 16.1018 79.0484 16.005 79.5098 16.005C79.9487 16.005 80.3423 16.105 80.6908 16.3051C81.0393 16.5019 81.3136 16.773 81.5136 17.1182C81.7169 17.4635 81.8185 17.8571 81.8185 18.2992C81.8185 18.6186 81.7766 18.8896 81.6927 19.1123C81.6088 19.3349 81.483 19.5414 81.3152 19.7318C81.1474 19.9222 80.9376 20.1287 80.686 20.3513L78.3434 22.4422L78.2321 22.1518H81.8185V23.115H77.1044Z" fill="#032126"/>
<path d="M83.3423 23.1198L85.7913 17.1134H82.6889V16.1502H86.8803V17.1134L84.4361 23.1198H83.3423Z" fill="#032126"/>
<path d="M90.4758 23.265C90.0015 23.265 89.5821 23.1618 89.2174 22.9552C88.8528 22.7455 88.5657 22.4583 88.3559 22.0937C88.1494 21.7291 88.0462 21.3096 88.0462 20.8353V18.4347C88.0462 17.9604 88.1494 17.5409 88.3559 17.1763C88.5657 16.8117 88.8528 16.5261 89.2174 16.3196C89.5821 16.1099 90.0015 16.005 90.4758 16.005C90.9502 16.005 91.3696 16.1099 91.7342 16.3196C92.0989 16.5261 92.3844 16.8117 92.5909 17.1763C92.8007 17.5409 92.9055 17.9604 92.9055 18.4347V20.8353C92.9055 21.3096 92.8007 21.7291 92.5909 22.0937C92.3844 22.4583 92.0989 22.7455 91.7342 22.9552C91.3696 23.1618 90.9502 23.265 90.4758 23.265ZM90.4758 22.297C90.734 22.297 90.9679 22.2357 91.1777 22.1131C91.3906 21.9872 91.56 21.8195 91.6858 21.6097C91.8117 21.3968 91.8746 21.1596 91.8746 20.8982V18.3621C91.8746 18.104 91.8117 17.87 91.6858 17.6603C91.56 17.4473 91.3906 17.2795 91.1777 17.1569C90.9679 17.0311 90.734 16.9682 90.4758 16.9682C90.2177 16.9682 89.9822 17.0311 89.7692 17.1569C89.5595 17.2795 89.3917 17.4473 89.2658 17.6603C89.14 17.87 89.0771 18.104 89.0771 18.3621V20.8982C89.0771 21.1596 89.14 21.3968 89.2658 21.6097C89.3917 21.8195 89.5595 21.9872 89.7692 22.1131C89.9822 22.2357 90.2177 22.297 90.4758 22.297Z" fill="#032126"/>
<path d="M96.6866 23.265C96.2122 23.265 95.7928 23.1618 95.4282 22.9552C95.0635 22.7455 94.7764 22.4583 94.5666 22.0937C94.3601 21.7291 94.2569 21.3096 94.2569 20.8353V18.4347C94.2569 17.9604 94.3601 17.5409 94.5666 17.1763C94.7764 16.8117 95.0635 16.5261 95.4282 16.3196C95.7928 16.1099 96.2122 16.005 96.6866 16.005C97.1609 16.005 97.5803 16.1099 97.945 16.3196C98.3096 16.5261 98.5951 16.8117 98.8016 17.1763C99.0114 17.5409 99.1162 17.9604 99.1162 18.4347V20.8353C99.1162 21.3096 99.0114 21.7291 98.8016 22.0937C98.5951 22.4583 98.3096 22.7455 97.945 22.9552C97.5803 23.1618 97.1609 23.265 96.6866 23.265ZM96.6866 22.297C96.9447 22.297 97.1786 22.2357 97.3884 22.1131C97.6013 21.9872 97.7707 21.8195 97.8965 21.6097C98.0224 21.3968 98.0853 21.1596 98.0853 20.8982V18.3621C98.0853 18.104 98.0224 17.87 97.8965 17.6603C97.7707 17.4473 97.6013 17.2795 97.3884 17.1569C97.1786 17.0311 96.9447 16.9682 96.6866 16.9682C96.4284 16.9682 96.1929 17.0311 95.9799 17.1569C95.7702 17.2795 95.6024 17.4473 95.4766 17.6603C95.3507 17.87 95.2878 18.104 95.2878 18.3621V20.8982C95.2878 21.1596 95.3507 21.3968 95.4766 21.6097C95.6024 21.8195 95.7702 21.9872 95.9799 22.1131C96.1929 22.2357 96.4284 22.297 96.6866 22.297Z" fill="#032126"/>
<path d="M101.682 23.1198V17.2634L100.371 18.062V16.9343L101.682 16.1502H102.713V23.1198H101.682Z" fill="#032126"/>
<path d="M62.6957 35.495C62.0048 35.495 61.4216 35.3424 60.946 35.0371C60.4704 34.7286 60.1105 34.3029 59.8663 33.7598C59.6221 33.2168 59.5 32.5902 59.5 31.88C59.5 31.1699 59.6221 30.5433 59.8663 30.0002C60.1105 29.4572 60.4704 29.033 60.946 28.7277C61.4216 28.4193 62.0048 28.265 62.6957 28.265C63.5022 28.265 64.1609 28.4723 64.6719 28.8868C65.1828 29.2981 65.533 29.8508 65.7226 30.5449L64.9996 30.7329C64.8518 30.1834 64.5867 29.748 64.2043 29.4266C63.8219 29.1053 63.319 28.9446 62.6957 28.9446C62.1526 28.9446 61.7011 29.0683 61.3412 29.3158C60.9813 29.5632 60.7098 29.9086 60.5267 30.3521C60.3467 30.7923 60.2535 31.3016 60.2471 31.88C60.2439 32.4584 60.3323 32.9677 60.5122 33.408C60.6954 33.8482 60.9685 34.1936 61.3316 34.4443C61.6979 34.6917 62.1526 34.8154 62.6957 34.8154C63.319 34.8154 63.8219 34.6547 64.2043 34.3334C64.5867 34.0088 64.8518 33.5734 64.9996 33.0272L65.7226 33.2152C65.533 33.9092 65.1828 34.4635 64.6719 34.8781C64.1609 35.2894 63.5022 35.495 62.6957 35.495Z" fill="#032126"/>
<path d="M66.7861 35.3504V28.4096H71.1241V29.0892H67.4946V31.4896H70.5457V32.1692H67.4946V34.6708H71.1241V35.3504H66.7861Z" fill="#032126"/>
<path d="M72.2839 35.3504V28.4096H74.9638C75.0313 28.4096 75.1068 28.4128 75.1904 28.4193C75.2771 28.4225 75.3639 28.4321 75.4507 28.4482C75.8138 28.5028 76.1206 28.6297 76.3713 28.829C76.6251 29.025 76.8163 29.2724 76.9449 29.5712C77.0766 29.8701 77.1425 30.201 77.1425 30.5642C77.1425 31.0879 77.0043 31.5426 76.728 31.9282C76.4516 32.3138 76.0564 32.5564 75.5422 32.656L75.2964 32.7139H72.9925V35.3504H72.2839ZM76.487 35.3504L75.1181 32.5259L75.7977 32.2656L77.3015 35.3504H76.487ZM72.9925 32.0391H74.9446C75.0024 32.0391 75.0699 32.0359 75.147 32.0294C75.2241 32.023 75.2996 32.0118 75.3735 31.9957C75.6113 31.9443 75.8057 31.8463 75.9568 31.7017C76.111 31.5571 76.2251 31.3852 76.299 31.1859C76.3761 30.9867 76.4147 30.7794 76.4147 30.5642C76.4147 30.3489 76.3761 30.1416 76.299 29.9424C76.2251 29.7399 76.111 29.5664 75.9568 29.4218C75.8057 29.2772 75.6113 29.1792 75.3735 29.1278C75.2996 29.1117 75.2241 29.1021 75.147 29.0989C75.0699 29.0924 75.0024 29.0892 74.9446 29.0892H72.9925V32.0391Z" fill="#032126"/>
<path d="M80.2115 35.3504V29.0892H77.787V28.4096H83.3445V29.0892H80.92V35.3504H80.2115Z" fill="#032126"/>
<path d="M84.2138 35.3504V28.4096H84.9223V35.3504H84.2138Z" fill="#032126"/>
<path d="M86.3674 35.3504V28.4096H90.3535V29.1182H87.0759V31.5282H89.7751V32.2319H87.0759V35.3504H86.3674Z" fill="#032126"/>
<path d="M91.3214 35.3504V28.4096H92.03V35.3504H91.3214Z" fill="#032126"/>
<path d="M93.475 35.3504V28.4096H97.813V29.0892H94.1835V31.4896H97.2346V32.1692H94.1835V34.6708H97.813V35.3504H93.475Z" fill="#032126"/>
<path d="M98.9728 35.3504V28.4096H101.079C101.153 28.4096 101.278 28.4112 101.455 28.4144C101.635 28.4176 101.807 28.4305 101.971 28.453C102.498 28.5269 102.938 28.7229 103.292 29.041C103.645 29.3592 103.91 29.764 104.087 30.2557C104.264 30.7473 104.352 31.2888 104.352 31.88C104.352 32.4713 104.264 33.0127 104.087 33.5044C103.91 33.996 103.645 34.4009 103.292 34.719C102.938 35.0371 102.498 35.2331 101.971 35.307C101.81 35.3263 101.638 35.3392 101.455 35.3456C101.272 35.3488 101.147 35.3504 101.079 35.3504H98.9728ZM99.7054 34.6708H101.079C101.211 34.6708 101.352 34.6676 101.503 34.6612C101.658 34.6515 101.789 34.6354 101.899 34.613C102.303 34.5423 102.63 34.3784 102.877 34.1213C103.128 33.8642 103.311 33.5429 103.426 33.1573C103.542 32.7685 103.6 32.3427 103.6 31.88C103.6 31.4141 103.542 30.9867 103.426 30.5979C103.311 30.2091 103.128 29.8877 102.877 29.6339C102.626 29.38 102.3 29.2178 101.899 29.1471C101.789 29.1246 101.656 29.1101 101.498 29.1037C101.344 29.0941 101.204 29.0892 101.079 29.0892H99.7054V34.6708Z" fill="#032126"/>
</g>
<defs>
<filter id="filter0_d_29_1091" x="0" y="0" width="120.352" height="51.5" filterUnits="userSpaceOnUse" color-interpolation-filters="sRGB">
<feFlood flood-opacity="0" result="BackgroundImageFix"/>
<feColorMatrix in="SourceAlpha" type="matrix" values="0 0 0 0 0 0 0 0 0 0 0 0 0 0 0 0 0 0 127 0" result="hardAlpha"/>
<feOffset/>
<feGaussianBlur stdDeviation="2"/>
<feColorMatrix type="matrix" values="0 0 0 0 0 0 0 0 0 0 0 0 0 0 0 0 0 0 0.04 0"/>
<feBlend mode="normal" in2="BackgroundImageFix" result="effect1_dropShadow_29_1091"/>
<feBlend mode="normal" in="SourceGraphic" in2="effect1_dropShadow_29_1091" result="shape"/>
</filter>
<linearGradient id="paint0_linear_29_1091" x1="13.3698" y1="13.3689" x2="38.1307" y2="38.1297" gradientUnits="userSpaceOnUse">
<stop stop-color="#FCF9E8" stop-opacity="0"/>
<stop offset="1" stop-color="#FCF9E8" stop-opacity="0.15"/>
</linearGradient>
<linearGradient id="paint1_linear_29_1091" x1="12.6509" y1="12.6509" x2="38.8473" y2="38.8473" gradientUnits="userSpaceOnUse">
<stop stop-color="#FCF9E8" stop-opacity="0"/>
<stop offset="1" stop-color="#FCF9E8" stop-opacity="0.15"/>
</linearGradient>
</defs>
</svg>
