<?xml version="1.0" encoding="UTF-8"?>
<svg version="1.1" viewBox="0 0 3544 1072" width="886" height="268" xmlns="http://www.w3.org/2000/svg">
<path transform="translate(87,27)" d="m0 0h135l12 3 10 6 6 5 7 10 3 8 1 17v235l1 19 4 8 6 4 8 1h392l9 2 12 6 8 7 7 11 3 10 1 362v205l-1 43-2 16-3 7-6 9-5 5-9 6-10 4-18 2h-117l-14-2-10-5-9-8-5-8-3-8-1-7-1-447-2-10-4-8-5-4-7-2h-205l-8 4-5 9-1 21v203l1 18 4 16 5 12 7 11 6 6v2l4 2 8 6 16 8 10 3 11 1 32 1 11 3 9 7 6 10 4 16v100l-2 18-4 10-7 9-10 7-5 3-9 2-11 1h-82l-19-2-28-6-18-5-18-8-16-8-16-10-10-8-13-11-14-14-9-11-10-14-12-21-10-21-8-23-5-19-6-35-2-20v-742l3-9 7-11 10-7 8-4z" fill="#fff"/>
<path transform="translate(3115,327)" d="m0 0h47l31 3 22 3 40 10 25 9 19 8 17 8 20 12 22 15 18 14 17 16 8 8 7 8 9 9 20 26 10 15 8 14 10 17 11 24 10 26 7 24 5 22 5 35 1 9v56l-5 42-7 30-8 26-8 20-8 18-13 23-12 19-12 16-11 14-11 12-26 26-14 11-12 9-16 11-15 9-18 10-21 10-34 12-32 8-30 5-27 3h-66l-36-4-33-7-33-10-20-8-25-12-16-9-12-8-14-10-10-8-9-7-8-8-8-7-4-5-4-3v-2l-3-1-7-8-8-8-13-17-9-12-12-19-15-28-8-18-7-18-7-25-6-28-3-21-1-11-1-42 1-31 3-24 3-18 6-26 11-33 9-21 14-27 13-21 12-17 8-11 11-12 7-8 9-10 10-10 22-18 17-12 15-10 23-13 23-11 21-8 27-8 28-6 43-5zm7 194-25 4-17 5-18 8-16 10-12 11-8 7-10 11-8 11-8 13-8 16-6 19-5 25-1 13v32l3 21 4 18 6 17 8 17 9 15 9 11 10 12 11 9 8 7 13 8 12 6 15 6 12 3 14 3 24 1 21-2 20-5 17-7 18-10 17-13 18-18v-2h2l13-19 8-16 7-18 5-21 3-16v-40l-5-29-7-23-8-18-9-14-13-17-7-8-8-7-18-13-14-8-11-5-18-6-17-3-11-1z" fill="#fff"/>
<path transform="translate(1786,329)" d="m0 0h37l30 2 30 5 20 5 20 6 25 10 23 11 22 14 16 12 14 11 10 9 12 12 11 14 10 13 15 23 7 12 11 23 11 26 7 21 7 25 7 37 4 36 1 11v49l-5 15-8 11-11 8-9 3-9 2-399 1-11 1-6 4-4 5-2 7v10l3 12 8 17 8 12 15 16 13 10 14 8 12 6 20 6 25 4h37l31-5 13-4 15-6 17-9 13-9 13-11 3-3h2v-2l8-7 9-9 10-7 7-3h14l11 5 9 6 20 14 14 11 18 13 15 11 10 8 10 7 10 9 6 9 3 10-1 9-6 12-10 13-15 16-16 16-8 7-13 10-17 12-26 15-23 11-30 11-29 8-31 6-36 4h-69l-34-4-27-6-21-6-28-10-23-10-20-11-21-13-13-10-16-13-13-12-19-19-11-14-9-11-16-24-13-25-11-24-9-25-6-22-6-31-3-20-3-36v-29l4-37 5-30 7-28 10-30 9-21 11-23 10-18 10-15 10-14 13-17 10-10 7-8 13-12 11-10 14-11 21-14 23-13 21-10 21-8 20-6 29-7 15-3zm-8 165-18 3-18 6-17 9-11 8-6 5-7 8-7 7-8 13-9 19-4 15-1 15 3 9 5 5 7 2h206l16-1 8-3 6-7 1-12-2-13-5-15-7-14-10-14-10-11-11-9-18-11-19-8-12-3-21-3z" fill="#fff"/>
<path transform="translate(799,343)" d="m0 0h139l15 1 14 4 12 8 13 13 10 14 7 8 7 9 12 14 11 14 14 17 11 13 7 9 12 15 7 9 14 17 4 2h11l8-4 13-13 1-2h2l2-4 11-14 11-13 6-8 12-15 9-11 13-16 7-8 8-11 9-10 8-11 13-14 9-6 10-5 12-2h152l18 2 12 6 7 8 4 8 1 4v9l-4 10-10 14-10 11-10 13-9 10-7 9-9 10-10 13-10 11-10 13-8 10-5 5-11 14-4 5h-2l-2 4-13 16-16 20-10 12-8 10-12 14-8 10-9 10-10 13-6 7h-2l-2 4-11 15-3 9v7l5 12 9 10 11 14 11 13 9 11 12 14 13 16 10 12 8 10 8 9 10 13 7 8 8 10 9 10 10 13 10 11 9 12 9 10 9 12 9 10 8 11 10 11 9 12 9 10 11 14 11 12 13 18 3 9v10l-4 9-8 8-6 3-15 2h-158l-10-2-8-4-9-5-13-12-9-11-11-13-7-8-11-14-11-13-7-9-12-14-7-9-10-12-8-10-11-13-11-14-10-12-8-10-9-11v-2l-4-2-6-4-8-1-9 3-7 6-9 11-8 9-14 18h-2l-2 4-10 12-9 11-8 10-9 11h-2l-2 4-9 11-7 9h-2l-2 4-9 11-14 17-9 11-9 10-6 8-8 8-15 10-12 5-10 2h-148l-18-2-10-6-5-6-3-5-1-5v-14l9-15 7-7 11-15 8-9 11-14 10-11 7-10h2l2-4 9-10 11-14 9-10 8-11 8-8 11-15 11-12 9-12 9-10 7-10h2l2-4 9-10 8-11 6-7h2l2-4 11-14 9-10 9-12 9-10 11-14 10-11 9-14 2-7-2-9-9-14-11-13-7-9-12-14-7-9-12-14-8-10-10-12-10-13-9-11-8-10-11-13-24-30-13-16-9-11-7-9-11-13-10-13-9-10-20-26-7-12-2-6v-9l4-10 5-7 8-5 11-3z" fill="#fff"/>
<path transform="translate(2518,27)" d="m0 0h139l9 2 12 6 10 9 6 10 2 6 1 11 1 748v163l-2 24-5 9-9 10-8 6-14 5-21 2h-82l-37-1-12-3-10-6-8-9-6-12-3-14-1-32v-874l1-24 4-12 6-9 8-7 11-6z" fill="#fff"/>
<path transform="translate(2227,27)" d="m0 0h137l10 2 12 6 7 6 7 11 3 7 1 5v932l-4 14-5 9-7 7-14 8-12 3-12 1h-84l-35-1-10-2-10-5-10-9-6-9-3-9-1-7v-933l3-9 7-12 8-7 14-7z" fill="#fff"/>
<path transform="translate(593,25)" d="m0 0h19l21 3 18 6 17 9 9 7 15 14 9 12 9 15 6 14 4 17 1 13v21l-2 14-4 14-7 17-9 14-8 10-13 13-14 9-16 8-14 5-20 4h-23l-19-4-15-5-15-8-13-10-16-16-10-15-7-12-7-18-4-21-1-7v-12l4-22 6-17 7-14 9-13 11-13 16-13 17-9 16-6 8-2z" fill="#fff"/>
</svg>
