<?xml version="1.0" encoding="UTF-8"?>
<svg version="1.1" viewBox="0 0 2048 619" width="886" height="268" xmlns="http://www.w3.org/2000/svg">
<path transform="translate(48,16)" d="m0 0h82l8 3 8 7 4 7 1 155 3 8 5 2 234 1 10 6 6 8 2 8v346l-2 16-7 9-8 5-10 2h-74l-8-2-6-4-5-6-2-6-1-261-2-8-2-4-4-2-14-1h-102l-9 2-4 8v136l3 12 6 12 7 7 11 6 8 3 24 1 9 3 6 7 3 10v60l-2 12-4 6-6 5-5 3-8 1h-53l-13-2-21-5-23-11-11-8-14-12-9-11-9-14-9-19-5-15-4-19-2-15v-436l6-9 9-6z"/>
<path transform="translate(1800,189)" d="m0 0h27l29 3 24 6 20 7 19 9 14 9 11 8 11 9 18 18 13 17 12 19 8 16 10 25 5 21 3 20 1 10v24l-3 28-6 25-7 19-8 16-9 16-9 12-9 11-12 13-8 7-14 11-15 10-14 8-19 8-19 6-24 5-16 2h-47l-22-3-21-5-23-8-20-10-15-10-13-10-15-14-13-14-12-16-11-19-9-19-6-18-5-24-2-17v-39l3-23 5-21 7-20 9-19 11-18 11-15 11-12 7-8 10-9 18-13 15-9 16-8 19-7 19-5 19-3zm6 111-18 3-14 5-11 6-13 11-11 12-9 16-4 10-4 19v31l4 19 7 16 6 11 13 15 10 8 12 7 13 5 17 3h15l15-3 13-5 11-6 10-8 11-11 10-15 6-15 4-17 1-5v-25l-4-19-5-15-9-15-9-11-9-8-14-9-11-5-16-4z"/>
<path transform="translate(1037,190)" d="m0 0h12l28 2 26 6 20 7 16 8 13 8 17 13 10 9 13 16 11 17 9 17 10 25 6 22 4 23 2 20v31l-4 10-5 6-7 4-4 1-16 1h-36l-189 1-5 4-2 5 1 11 8 16 9 10 8 7 14 8 12 4 19 3h16l21-3 16-6 13-7 11-9 12-11 8-6 2-1h11l12 7 12 9 19 14 9 7 11 8 6 7 2 10-4 9-9 11-18 18-16 12-19 11-18 8-21 7-24 5-17 2h-49l-20-3-24-6-25-10-19-10-17-12-15-13-11-11-11-14-7-10-9-16-8-17-7-21-5-24-2-15-1-13v-25l4-31 5-21 7-20 12-25 10-16 8-11 9-11 15-15 17-13 13-8 17-9 18-7 24-6 19-3zm-12 95-16 4-12 6-8 6-11 11-9 17-3 11v10l3 5 4 2h130l6-3 3-4v-11l-5-15-7-11-9-10-10-7-14-7-11-3-8-1z"/>
<path transform="translate(454,199)" d="m0 0h98l10 4 10 9 11 14 11 13 8 10 9 11 8 10 11 14 6 8 6 3 6-1 6-4 9-10 24-30 13-16 9-11 8-10 5-6 9-6 5-2h102l10 5 5 8v9l-6 10-11 13-9 11-9 10-7 9-14 17-22 26-10 13-22 26-13 16-8 10-2 5v6l6 10 12 14 9 11 11 13 11 14 8 9 11 14 13 15 11 14 8 9 11 14 10 12 7 8 9 11 11 14 2 5v7l-4 7-6 4-7 1h-94l-9-3-8-5-8-8-8-10-10-12-11-14-8-9-11-14-11-13-9-11-13-16-5-3-8 1-6 5-18 22-7 8-11 14-9 10-8 10-11 13-9 11-11 13-10 7-7 3-5 1h-90l-9-2-6-5-2-4v-12l7-10 10-12 9-11 14-17 12-14 8-10 11-13 11-14 7-8 9-11 12-14 8-10 9-11 12-14 8-11 2-4v-6l-7-11-11-13-13-16-11-13-8-10-11-14-12-14-10-13-11-13-7-9-8-10-11-13-9-13-2-5v-8l4-6 4-4z"/>
<path transform="translate(1454,16)" d="m0 0h83l8 3 8 6 5 10 1 474v58l-1 13-3 6-5 6-12 6-8 1h-70l-10-2-7-4-6-8-3-10v-540l5-10 7-6z"/>
<path transform="translate(1286,16)" d="m0 0h82l9 3 7 6 4 8 1 3v540l-3 9-7 8-10 5-6 1h-70l-11-2-8-5-6-9-1-3-1-46v-261l1-240 6-10 10-6z"/>
<path transform="translate(341,15)" d="m0 0h17l14 3 14 7 13 11 6 8 6 10 4 12 1 5v24l-5 17-7 12-9 10-7 6-16 8-15 4h-17l-16-4-13-7-10-9-7-8-8-14-4-11-2-13v-9l4-17 8-16 10-12 11-8 13-6 7-2z"/>
</svg>
